# xmcd
#
# Track frame offsets:
#	183
#	12365
#	22328
#	34920
#	48428
#	59268
#	73265
#	83065
#	96085
#	106993
#	119610
#	131983
#	143503
#	155723
#	165855
#	178848
#	191125
#	201228
#	211438
#	223118
#
# Disc length: 3131
#
# Revision: 1
# Processed by: cddbd v1.5.1PL0 Copyright (c) Steve Scherf et al.
# Submitted via: ExactAudioCopy v0.95a3
# Normalized: r0:TDELIM( - )
#
DISCID=330c3914
DTITLE=Various Artist - Giants of Country
DYEAR=1900
DGENRE=
TTITLE0=Hank Williams - Your Cheatin' Heart
TTITLE1=Conway Twitty - It's Only Make Belive
TTITLE2=Elvis Presley - Don't
TTITLE3=Patsy Cline - She's Got You
TTITLE4=Conway Twitty - Mona Lisa
TTITLE5=Elvis Presley - Are You Lonesome Tonight
TTITLE6=Patsy Cline - Hearthaches
TTITLE7=Hank Williams - Jambalaya (On The Bayou)
TTITLE8=Elvis Presley - Have I Told You Lately That I Love You
TTITLE9=Patsy Cline - I Fall To Pieces
TTITLE10=Conway Twitty - Danny Boy
TTITLE11=Hank Williams - Mansion On The Hill
TTITLE12=Patsy Cline - Crazy
TTITLE13=Conway Twitty - Lonley Blue Boy
TTITLE14=Hank Williams - Wedding Bells
TTITLE15=Elvis Presley - Love Me Tender
TTITLE16=Patsy Cline - Seven Lonely Days
TTITLE17=Conway Twitty - The Story of My Love
TTITLE18=Hank Williams - Settin' The Woods On Fire
TTITLE19=Elvis Presly - I Want You, I Need You, I Love You
EXTD=
EXTT0=
EXTT1=
EXTT2=
EXTT3=
EXTT4=
EXTT5=
EXTT6=
EXTT7=
EXTT8=
EXTT9=
EXTT10=
EXTT11=
EXTT12=
EXTT13=
EXTT14=
EXTT15=
EXTT16=
EXTT17=
EXTT18=
EXTT19=
PLAYORDER=
